<mxfile host="app.diagrams.net" modified="2023-06-18T19:35:45.644Z" agent="Mozilla/5.0 (Windows NT 10.0; Win64; x64) AppleWebKit/537.36 (KHTML, like Gecko) Chrome/114.0.0.0 Safari/537.36 Edg/114.0.1823.43" etag="NdG0f_nnnrssLJSNvkV_" version="21.5.0" type="device">
  <diagram name="Страница 1" id="az1gysKcP3N_YfgW6BbR">
    <mxGraphModel dx="690" dy="409" grid="1" gridSize="10" guides="1" tooltips="1" connect="1" arrows="1" fold="1" page="1" pageScale="1" pageWidth="827" pageHeight="1169" math="0" shadow="0">
      <root>
        <mxCell id="0" />
        <mxCell id="1" parent="0" />
        <mxCell id="x6giBed8Eq57TnZa8WMb-3" style="edgeStyle=orthogonalEdgeStyle;rounded=0;orthogonalLoop=1;jettySize=auto;html=1;entryX=0;entryY=0.5;entryDx=0;entryDy=0;" edge="1" parent="1" target="x6giBed8Eq57TnZa8WMb-2">
          <mxGeometry relative="1" as="geometry">
            <mxPoint x="430" y="240" as="sourcePoint" />
          </mxGeometry>
        </mxCell>
        <mxCell id="x6giBed8Eq57TnZa8WMb-1" value="Диспетчер" style="shape=umlActor;verticalLabelPosition=bottom;verticalAlign=top;html=1;outlineConnect=0;" vertex="1" parent="1">
          <mxGeometry x="384" y="220" width="30" height="60" as="geometry" />
        </mxCell>
        <mxCell id="x6giBed8Eq57TnZa8WMb-2" value="" style="ellipse;whiteSpace=wrap;html=1;" vertex="1" parent="1">
          <mxGeometry x="510" y="220" width="110" height="40" as="geometry" />
        </mxCell>
        <mxCell id="x6giBed8Eq57TnZa8WMb-4" value="Покупка билета" style="text;html=1;strokeColor=none;fillColor=none;align=center;verticalAlign=middle;whiteSpace=wrap;rounded=0;" vertex="1" parent="1">
          <mxGeometry x="510" y="260" width="110" height="30" as="geometry" />
        </mxCell>
        <mxCell id="x6giBed8Eq57TnZa8WMb-5" value="" style="ellipse;whiteSpace=wrap;html=1;" vertex="1" parent="1">
          <mxGeometry x="510" y="110" width="110" height="40" as="geometry" />
        </mxCell>
        <mxCell id="x6giBed8Eq57TnZa8WMb-6" value="Просмотр своих билетов" style="text;html=1;strokeColor=none;fillColor=none;align=center;verticalAlign=middle;whiteSpace=wrap;rounded=0;" vertex="1" parent="1">
          <mxGeometry x="510" y="150" width="110" height="30" as="geometry" />
        </mxCell>
        <mxCell id="x6giBed8Eq57TnZa8WMb-7" value="" style="endArrow=classic;html=1;rounded=0;entryX=0;entryY=0.5;entryDx=0;entryDy=0;" edge="1" parent="1" target="x6giBed8Eq57TnZa8WMb-5">
          <mxGeometry width="50" height="50" relative="1" as="geometry">
            <mxPoint x="430" y="220" as="sourcePoint" />
            <mxPoint x="380" y="110" as="targetPoint" />
          </mxGeometry>
        </mxCell>
        <mxCell id="x6giBed8Eq57TnZa8WMb-9" value="" style="ellipse;whiteSpace=wrap;html=1;" vertex="1" parent="1">
          <mxGeometry x="350" y="80" width="110" height="40" as="geometry" />
        </mxCell>
        <mxCell id="x6giBed8Eq57TnZa8WMb-10" value="Изменение персональных данных" style="text;html=1;strokeColor=none;fillColor=none;align=center;verticalAlign=middle;whiteSpace=wrap;rounded=0;" vertex="1" parent="1">
          <mxGeometry x="350" y="130" width="110" height="30" as="geometry" />
        </mxCell>
        <mxCell id="x6giBed8Eq57TnZa8WMb-12" value="" style="endArrow=classic;html=1;rounded=0;" edge="1" parent="1">
          <mxGeometry width="50" height="50" relative="1" as="geometry">
            <mxPoint x="400" y="210" as="sourcePoint" />
            <mxPoint x="400" y="170" as="targetPoint" />
          </mxGeometry>
        </mxCell>
        <mxCell id="x6giBed8Eq57TnZa8WMb-14" value="" style="ellipse;whiteSpace=wrap;html=1;" vertex="1" parent="1">
          <mxGeometry x="200" y="110" width="110" height="40" as="geometry" />
        </mxCell>
        <mxCell id="x6giBed8Eq57TnZa8WMb-15" value="Пополнение баланса" style="text;html=1;strokeColor=none;fillColor=none;align=center;verticalAlign=middle;whiteSpace=wrap;rounded=0;" vertex="1" parent="1">
          <mxGeometry x="200" y="160" width="110" height="30" as="geometry" />
        </mxCell>
        <mxCell id="x6giBed8Eq57TnZa8WMb-16" value="" style="endArrow=classic;html=1;rounded=0;entryX=1;entryY=1;entryDx=0;entryDy=0;" edge="1" parent="1" target="x6giBed8Eq57TnZa8WMb-14">
          <mxGeometry width="50" height="50" relative="1" as="geometry">
            <mxPoint x="370" y="220" as="sourcePoint" />
            <mxPoint x="260" y="300" as="targetPoint" />
          </mxGeometry>
        </mxCell>
        <mxCell id="x6giBed8Eq57TnZa8WMb-18" value="" style="ellipse;whiteSpace=wrap;html=1;" vertex="1" parent="1">
          <mxGeometry x="200" y="220" width="110" height="40" as="geometry" />
        </mxCell>
        <mxCell id="x6giBed8Eq57TnZa8WMb-19" value="Получение электронного билета" style="text;html=1;strokeColor=none;fillColor=none;align=center;verticalAlign=middle;whiteSpace=wrap;rounded=0;" vertex="1" parent="1">
          <mxGeometry x="200" y="270" width="110" height="30" as="geometry" />
        </mxCell>
        <mxCell id="x6giBed8Eq57TnZa8WMb-20" value="" style="endArrow=classic;html=1;rounded=0;entryX=1;entryY=0.5;entryDx=0;entryDy=0;" edge="1" parent="1" target="x6giBed8Eq57TnZa8WMb-18">
          <mxGeometry width="50" height="50" relative="1" as="geometry">
            <mxPoint x="370" y="240" as="sourcePoint" />
            <mxPoint x="320" y="240" as="targetPoint" />
          </mxGeometry>
        </mxCell>
      </root>
    </mxGraphModel>
  </diagram>
</mxfile>
